<svg xmlns="http://www.w3.org/2000/svg" viewBox="0 0 1920 1080"><defs>
<style>.a{fill:none;stroke:#966e28;stroke-width:5px;stroke-dasharray:29.87 9.87;}</style></defs>
<path class="a" d="M0,821.12q5.85.07,11.64.27l3.79.15c251.54,10.72,425.4,206.24,636,209.72l7.59,0q5.79,0,11.64-.27t11.51-.54l3.66-.22c150.72-9.23,227.67-64,320.11-147.43l5.45-4.93q4.23-3.84,8.51-7.76c2.69-2.46,5.58-5.12,8.65-7.95l2.87-2.64c112.77-104,458.9-431.22,625.9-510.32l7.08-3.25q5.56-2.48,10.83-4.54,5.52-2.16,11-4.16l3.64-1.32c83.31-29.94,154.44-32.74,210.67-33.73l7.75-.13,11.72-.19"/>
</svg>