<svg xmlns="http://www.w3.org/2000/svg" viewBox="0 0 1920 1080">
<defs><style>.a{fill:none;stroke:#966e28;stroke-width:5px;stroke-dasharray:30.06 10.06;}</style></defs>
<path class="a" d="M.18,637.05q6,.56,11.76,1.19l3.94.45c406.44,46.93,333.49,398.32,535.29,376.9l7.87-1q5.67-.84,11.64-2.07,5.79-1.18,11.3-2.51l3.62-.89c216.51-54.57,108.72-266.48-47.17-394.6l-5.78-4.7c-3-2.43-6-4.81-9.1-7.17s-6.26-4.88-9.36-7.36L511,592.75c-178-143.9-306.51-386-38.4-453.9l7.88-1.92q5.7-1.34,11.63-2.57t11.7-2.07l4-.53c268.44-32.93,329,563.38,518.6,781.09l5.36,6q4.05,4.43,8.17,8.63t8.46,8.24l2.91,2.67c156,141.4,530.74,158.29,854.37-214.67l5.16-6q3.83-4.47,7.64-9"/>
</svg>