<svg xmlns="http://www.w3.org/2000/svg" viewBox="0 0 761.89 775.05">
<defs><style>.a,.b{fill:none;stroke:#b41e1e;stroke-miterlimit:10;stroke-width:5px;}.b{stroke-dasharray:29.94 9.98;}.c{fill:#b41e1e;}</style></defs>
    <path class="a" d="M1.5,32.57s4.37,3.28,12.57,8.17"/>
    <path class="b" d="M22.73,45.69c43.11,23.53,147.76,65.75,276.08,12.37C421.13,7.18,491.33-2.67,559.62,4.65,665.1,16,759.68,76.27,759.39,186.73,759.1,299,673.67,300,639.1,399c-34.85,99.76,34,155-43.41,287.89-26.21,45-65.23,68.47-123.8,76.73"/>
    <path class="a" d="M466.93,764.23q-7.28.9-14.93,1.51"/>
    <path class="c" d="M451.77,756.28A9.4,9.4,0,1,0,461.84,765,9.4,9.4,0,0,0,451.77,756.28Z"/>
</svg>