<svg xmlns="http://www.w3.org/2000/svg" viewBox="0 0 761.89 598.82">
<defs>
<style>.a,.b{fill:none;stroke:#b41e1e;stroke-miterlimit:10;stroke-width:5px;}.b{stroke-dasharray:30.27 10.09;}.c{fill:#b41e1e;}</style>
</defs>
    <path class="a" d="M1.5,32.57s4.37,3.28,12.57,8.17"/>
    <path class="b" d="M22.83,45.74C66,69.29,170.59,111.4,298.81,58.06,421.13,7.18,491.33-2.67,559.62,4.65,665.1,16,759.68,76.27,759.39,186.73,759.1,299,707.67,287,673.1,386c-31.2,89.3,62.36,171,2,197.87"/>
    <path class="a" d="M670.41,585.69a99.14,99.14,0,0,1-14.5,3.83"/>
    <path class="c" d="M654.84,580.14a9.4,9.4,0,1,0,10.8,7.74A9.4,9.4,0,0,0,654.84,580.14Z"/>
</svg>