<svg xmlns="http://www.w3.org/2000/svg" viewBox="0 0 761.89 777.74">
<defs><style>.a,.b{fill:none;stroke:#b41e1e;stroke-miterlimit:10;stroke-width:5px;}.b{stroke-dasharray:29.94 9.98;}.c{fill:#b41e1e;}</style></defs>
    <path class="a" d="M1.5,35.25s4.37,3.27,12.57,8.17"/>
    <path class="b" d="M22.73,48.36C65.84,71.9,170.49,114.11,298.81,60.73,421.13,9.85,492.41-6.8,559.62,7.32S759.39,79,759.39,189.4,667.83,311.54,592.92,311.54,472.47,384,512.46,426.09C601.25,519.55,645,594.6,595.69,689.51c-24,46.24-64.69,68.83-123.8,76.82"/>
    <path class="a" d="M466.93,767q-7.28.87-14.93,1.46"/>
    <path class="c" d="M451.78,759a9.4,9.4,0,1,0,10.06,8.69A9.4,9.4,0,0,0,451.78,759Z"/>
</svg>