<svg xmlns="http://www.w3.org/2000/svg" viewBox="0 0 761.89 779.48">
<defs><style>.a,.b{fill:none;stroke:#b41e1e;stroke-miterlimit:10;stroke-width:5px;}.b{stroke-dasharray:29.91 9.97;}.c{fill:#b41e1e;}</style></defs>
    <path class="a" d="M1.5,35.25s4.37,3.27,12.57,8.17"/>
    <path class="b" d="M22.73,48.35c43.1,23.54,147.75,65.76,276.08,12.38C421.13,9.85,492.41-6.8,559.62,7.32S759.39,79,759.39,189.4,667.83,311.54,592.92,311.54,472.47,384,512.46,426.09C601.25,519.55,645,594.6,595.69,689.51c-23.78,45.78-63.88,68.38-122,76.58"/>
    <path class="a" d="M468.7,766.74q-7.27.91-14.92,1.54"/>
    <path class="c" d="M453.52,757a11.28,11.28,0,1,0,12.07,10.43A11.29,11.29,0,0,0,453.52,757Z"/>
</svg>