<svg xmlns="http://www.w3.org/2000/svg" viewBox="0 0 186.07 68.03"><defs><style>.a{fill:#231f20;}</style></defs><path class="a" d="M109.18,39.3c-.81,4-3.91,4.23-4.53,4.23a2.54,2.54,0,0,1-2.8-2.71,8.41,8.41,0,0,1,.16-1.44l1.92-9.56v0h-2.27l-2,9.81,0,.14a6.59,6.59,0,0,0-.16,1.41,4.12,4.12,0,0,0,4.31,4.4,5.79,5.79,0,0,0,4.5-1.84l-.29,1.61v0h2.24l3.08-15.53v0h-2.3Z"/><path class="a" d="M124.63,29.6a5.32,5.32,0,0,0-4.28,2l.35-1.75v0h-2.23l-3.09,15.53v0h2.27l1.89-9.52A4.87,4.87,0,0,1,124,31.61a2.59,2.59,0,0,1,2.17,1.09l0,0L128,31.08l0,0A4.22,4.22,0,0,0,124.63,29.6Z"/><polygon class="a" points="87.15 31.76 87.14 31.8 94.88 31.8 84.58 43.44 84.57 43.45 84.19 45.35 95.16 45.35 95.55 43.34 87.35 43.34 97.68 31.69 97.68 31.68 98.07 29.78 87.53 29.78 87.15 31.76"/><polygon class="a" points="128.33 45.31 128.32 45.35 130.59 45.35 133.68 29.78 131.46 29.78 128.33 45.31"/><path class="a" d="M159.07,29.6a5.79,5.79,0,0,0-4.44,1.75l1.76-8.67h-2.27l-4.55,22.67h2.26l1.9-9.52c.81-4,3.94-4.22,4.56-4.22a2.51,2.51,0,0,1,2.76,2.7,8.19,8.19,0,0,1-.15,1.44L159,45.35h2.27l2-9.81a8.38,8.38,0,0,0,.15-1.54A4.12,4.12,0,0,0,159.07,29.6Z"/><path class="a" d="M144,29.6c-4.11,0-7,2.89-7.92,7.94a13.27,13.27,0,0,0-.23,2.4c0,3.45,2.1,5.6,5.48,5.6a7.2,7.2,0,0,0,5.18-2.18l0,0-1.31-1.6,0,0,0,0a4.77,4.77,0,0,1-3.72,1.79c-1.61,0-3.33-1-3.33-3.65a11.69,11.69,0,0,1,.25-2.32,8.88,8.88,0,0,1,2-4.45,4.59,4.59,0,0,1,3.4-1.5,3.26,3.26,0,0,1,3,1.71l0,0,1.67-1.4,0,0,0,0A5.06,5.06,0,0,0,144,29.6Z"/><polygon class="a" points="132.3 25.51 134.57 25.51 135.13 22.68 132.87 22.68 132.3 25.51"/><polygon class="a" points="110.25 25.51 112.52 25.51 113.08 22.68 110.82 22.68 110.25 25.51"/><polygon class="a" points="104.2 25.51 106.47 25.51 107.04 22.68 104.78 22.68 104.2 25.51"/><polygon class="a" points="73.91 31.46 68.81 31.46 70.6 22.68 27.23 22.68 22.68 45.35 39.97 45.35 41.1 39.69 30.89 39.69 31.51 36.57 41.72 36.57 42.75 31.46 32.54 31.46 33.16 28.34 49.34 28.34 45.92 45.35 53.01 45.35 56.42 28.34 62.37 28.34 58.96 45.35 66.05 45.35 67.8 36.57 72.9 36.57 71.15 45.35 78.23 45.35 82.79 22.68 75.7 22.68 73.91 31.46"/></svg>