<svg xmlns="http://www.w3.org/2000/svg" xmlns:xlink="http://www.w3.org/1999/xlink" viewBox="0 0 31.67 28.75"><defs><style>.a{fill:none;}.b{fill:#b41e1e;}.c{clip-path:url(#a);}.d{fill:#fff;}.e{fill:#b51f1f;}</style><clipPath id="a" transform="translate(-0.16 -0.16)"><rect class="a" width="32" height="29.07"/></clipPath></defs><polygon class="b" points="11.28 23.48 28.84 27.25 31.67 18.44 29.37 9.26 19.84 4.76 12.17 12.4 9.68 19.52 11.28 23.48"/><g class="c"><polygon class="a" points="11.28 23.48 28.84 27.25 31.67 18.44 29.37 9.26 19.84 4.76 12.17 12.4 9.68 19.52 11.28 23.48"/></g><polygon class="b" points="7.63 21.25 4.4 24.3 7.63 28.75 14.1 28.75 15.25 25.94 12.48 19.38 7.63 21.25"/><polygon class="a" points="4.4 24.3 7.63 21.25 12.48 19.38 15.25 25.94 14.1 28.75 7.63 28.75 4.4 24.3"/><polygon class="d" points="18.21 9.7 21.79 7.88 28.85 12.9 29.07 16.48 26.86 13.14 18.21 9.7"/><path class="e" d="M6.55.16A6.66,6.66,0,0,0,.16,6.62C0,10.09,6.55,20.84,6.55,20.84s6.18-9.92,6.21-14.08A6.38,6.38,0,0,0,6.55.16" transform="translate(-0.16 -0.16)"/><path class="a" d="M6.55.16A6.66,6.66,0,0,0,.16,6.62C0,10.09,6.55,20.84,6.55,20.84s6.18-9.92,6.21-14.08A6.38,6.38,0,0,0,6.55.16Z" transform="translate(-0.16 -0.16)"/><circle class="d" cx="6.2" cy="6.97" r="2.73"/></svg>