<svg xmlns="http://www.w3.org/2000/svg" viewBox="0 0 194.58 71.67"><defs><style>.a{fill:none;}.b{fill:#82af39;}.c{fill:#3bb8c5;}.d{fill:#75c6d1;}.e{fill:#88cdd6;}.f{fill:#231f20;}</style></defs><path class="a" d="M182.33,23.08a2.49,2.49,0,0,0,2.77,2.52c3,0,4.92-2.92,4.92-5.76v-.33C183.72,19.51,182.33,21.44,182.33,23.08Z"/><path class="a" d="M143.78,11.82c-2.37,0-4,1.79-4.41,4.45h8.46C147.9,13.61,146.33,11.82,143.78,11.82Z"/><path class="b" d="M54.93,9.74H50l.21-1.24c.59-3.42,2.05-4.81,4.67-4.81a10.41,10.41,0,0,1,2.55.37l.8-2.7a14.11,14.11,0,0,0-3-.33c-4.7,0-7.33,2.48-8.2,7.44l-.26,1.27H43.15l-.54,2.55h3.68l-2.17,9.55c-.72,3.8-1.77,5.07-3.89,5.73l2.16,1.9c2.56-1,4.15-3.37,5-7.7l2.14-9.48h4.88Z"/><path class="b" d="M64.88,9.42c-5.91,0-10.5,5.1-10.5,12.32,0,4.15,2.08,6.45,6.63,6.45,5.47,0,10.61-4.78,10.61-12.25C71.62,12.11,69.65,9.42,64.88,9.42Zm-3.32,16c-2.73,0-3.83-1.49-3.83-4.19,0-4.56,2.66-9,6.64-9,2.62,0,3.82,1.46,3.82,4.12C68.19,21.59,65.1,25.38,61.56,25.38Z"/><path class="b" d="M74.19,22.17c0,3.43,1.6,6,6.31,6a13.8,13.8,0,0,0,4.77-.88l.22-2.87a10,10,0,0,1-4.08.87c-3.17,0-3.79-1.93-3.79-3.83,0-4.12,2.15-9.29,6.74-9.29a7.94,7.94,0,0,1,3.32.69L88.41,10a13.23,13.23,0,0,0-3.83-.55C78.09,9.45,74.19,15.25,74.19,22.17Z"/><path class="b" d="M102.84,13.83c-.84,4.48-4.59,11.59-8,11.59-1.6,0-2.11-1.24-1.56-4.09L95.55,9.74H92.3L90,22.06c-.73,3.79.44,6.16,3.79,6.16,3.79,0,6.63-3.68,8.35-7.51h.07a64.14,64.14,0,0,0-2,7.15h3.21l3.42-18.12H103.6Z"/><path class="b" d="M110.07,14.92c0,4.37,5.47,4.85,5.47,7.73,0,1.89-1.61,2.84-4,2.84a9.75,9.75,0,0,1-3-.48L108,27.93a15.74,15.74,0,0,0,3.1.26c5.13,0,7.79-2.88,7.79-5.91,0-4.08-5.5-4.85-5.5-7.73,0-1.53,1.24-2.66,3.61-2.66a8.76,8.76,0,0,1,2.73.44l.58-2.66a17.85,17.85,0,0,0-3.09-.25C112.55,9.42,110.07,11.82,110.07,14.92Z"/><polygon class="c" points="138.09 3.25 120.56 3.25 120.56 6.06 127.64 6.06 127.64 27.86 130.99 27.86 130.99 6.06 138.09 6.06 138.09 3.25"/><path class="c" d="M143.93,9.42c-5.14,0-8.1,4-8.1,9.47,0,6.38,3,9.3,8.57,9.3a16,16,0,0,0,6.12-1.13l-.29-2.66A12.91,12.91,0,0,1,145,25.53c-3.87,0-5.87-2.08-5.72-6.93h11.84a14.32,14.32,0,0,0,.11-1.57C151.18,12.88,149,9.42,143.93,9.42Zm-4.56,6.85c.37-2.66,2-4.45,4.41-4.45,2.55,0,4.12,1.79,4.05,4.45Z"/><path class="c" d="M158.29,14h-.07a24.28,24.28,0,0,0,.4-4.3h-3.18V27.86h3.29V20.57c0-5.8,1.82-8.6,5.65-8l.14-3.2C160.91,9,159.05,11.53,158.29,14Z"/><path class="c" d="M170.75,14h-.07a24.28,24.28,0,0,0,.4-4.3h-3.17V27.86h3.28V20.57c0-5.8,1.82-8.6,5.65-8l.15-3.2C173.38,9,171.52,11.53,170.75,14Z"/><path class="c" d="M193.38,27.86c0-1.57-.08-3.5-.08-5.21V15.43c0-3.61-1.49-6-6.71-6a16.61,16.61,0,0,0-6.34,1.31l.33,2.81a11.4,11.4,0,0,1,5.47-1.5c3,0,4,1.35,4,3.87v1.35c-6.85,0-10.9,2.51-10.9,6.48,0,2.88,2,4.49,5,4.49a6.46,6.46,0,0,0,6.16-3.94h.08a21.4,21.4,0,0,0-.19,3.61Zm-3.36-8c0,2.84-2,5.76-4.92,5.76a2.49,2.49,0,0,1-2.77-2.52c0-1.64,1.39-3.57,7.69-3.57Z"/><polygon class="a" points="27.53 47.17 27.83 45.88 27.52 47.17 27.53 47.17"/><path class="d" d="M27.52,47.17l-.83,3.48h0l.81-3.48Z"/><path class="d" d="M17.24,65.43l5,4.64.74-3.2A27.46,27.46,0,0,1,17.24,65.43Z"/><path class="d" d="M23.29,65.4l3.09-13.29h0L23.15,65.37Z"/><path class="c" d="M26.72,50.65c.11,0,.21.05.32.06h.32a4.43,4.43,0,0,0,2.88-1l-2.71-2.54Z"/><path class="c" d="M23.46,65.43h.1a16.25,16.25,0,0,0,2.08.13A16.8,16.8,0,0,0,39.43,58.3l-8.1-7.57a5.74,5.74,0,0,1-4,1.49,3.62,3.62,0,0,1-.48,0h0c-.16,0-.31-.06-.47-.09L23.29,65.4A1,1,0,0,1,23.46,65.43Z"/><path class="c" d="M25.64,67.07a20.2,20.2,0,0,1-2.32-.14l-.1,0h0l-.27,0-.74,3.2L44.7,63.23l-4.17-3.89A18.27,18.27,0,0,1,25.64,67.07Z"/><path class="e" d="M30.24,49.71a3.84,3.84,0,0,0,1.16-2.32,4.4,4.4,0,0,0,0-.62,3.11,3.11,0,0,0-.08-.76l-3.83,1.16Z"/><path class="e" d="M42.27,50.88a13.54,13.54,0,0,0,.11-1.68,13.28,13.28,0,0,0-1.5-6.09l-8.1,2.46a5.19,5.19,0,0,1,.16,1.2,6.33,6.33,0,0,1-.06.86,5.34,5.34,0,0,1-1.55,3.1l8.1,7.57A16.67,16.67,0,0,0,42.27,50.88Z"/><path class="e" d="M42.34,42.67a14.6,14.6,0,0,1,1.54,6.53,14.79,14.79,0,0,1-.12,1.87,18.15,18.15,0,0,1-3.23,8.27l4.17,3.89L50,40.33Z"/><path class="c" d="M30.91,34.55h0a14.77,14.77,0,0,1,11.39,8.12L50,40.33,33,24.4,30.55,34.53C30.67,34.54,30.79,34.53,30.91,34.55Z"/><path class="c" d="M30.78,36h0l-.54,0-2.37,9.88-.3,1.29L31.36,46a4,4,0,0,0-2.81-2.8l.38-1.45a5.48,5.48,0,0,1,3.85,3.81l8.1-2.46A13.26,13.26,0,0,0,30.78,36Z"/><path class="b" d="M1.7,37.38a26.07,26.07,0,0,0-.2,3.17A25.25,25.25,0,0,0,23.29,65.4l3.09-13.29a8.13,8.13,0,0,1-6.61-7.93,7.23,7.23,0,0,1,.07-1,9.92,9.92,0,0,1,9.83-8.68,8.48,8.48,0,0,1,.88.06L33,24.4,36.45,10a29.29,29.29,0,0,0-4.25-.33C16.85,9.63,3.68,21.66,1.7,37.38Z"/><path class="b" d="M27.83,45.88,30.2,36c-.18,0-.35,0-.53,0a8.41,8.41,0,0,0-8.34,7.37,5.93,5.93,0,0,0-.06.84,6.62,6.62,0,0,0,5.45,6.47l.8-3.48Z"/><path class="a" d="M23.22,66.91h0l.1,0a20.2,20.2,0,0,0,2.32.14,18.34,18.34,0,0,0,18.12-16,14.79,14.79,0,0,0,.12-1.87,14.6,14.6,0,0,0-1.54-6.53A14.77,14.77,0,0,0,31,34.55h0c-.12,0-.24,0-.36,0a8.48,8.48,0,0,0-.88-.06,9.92,9.92,0,0,0-9.83,8.68,7.23,7.23,0,0,0-.07,1,8.09,8.09,0,0,0,6.57,7.93h0c.16,0,.31.07.47.09h0a3.62,3.62,0,0,0,.48,0,5.74,5.74,0,0,0,4-1.49,5.34,5.34,0,0,0,1.55-3.1,6.33,6.33,0,0,0,.06-.86,5.19,5.19,0,0,0-.16-1.2,5.48,5.48,0,0,0-3.85-3.81l-.38,1.45A4,4,0,0,1,31.36,46a3.11,3.11,0,0,1,.08.76,4.4,4.4,0,0,1,0,.62,3.84,3.84,0,0,1-1.16,2.32,4.43,4.43,0,0,1-2.88,1H27c-.11,0-.21,0-.32-.06h0a6.6,6.6,0,0,1-5.42-6.47,5.93,5.93,0,0,1,.06-.84A8.41,8.41,0,0,1,29.67,36c.18,0,.35,0,.53,0l.54,0h0A13.32,13.32,0,0,1,42.38,49.2a13.54,13.54,0,0,1-.11,1.68A16.82,16.82,0,0,1,25.64,65.57a16.25,16.25,0,0,1-2.08-.13h-.1a1,1,0,0,0-.17,0l-.14,0A25.1,25.1,0,0,1,1.5,40.55a26.07,26.07,0,0,1,.2-3.17c2-15.72,15.15-27.75,30.5-27.75a29.29,29.29,0,0,1,4.25.33L37,10l.24-1.49h0a32.45,32.45,0,0,0-5-.4c-16.15,0-29.91,12.62-32,29.06A27.31,27.31,0,0,0,0,40.55,26.64,26.64,0,0,0,17.24,65.43,27.46,27.46,0,0,0,23,66.87Z"/><path class="f" d="M55.58,43.61V38.22h2.78v.6h-2v1.72h1.94v.59H56.32V43h2v.61Z"/><path class="f" d="M61.64,40.28c-.84-.15-1.23.46-1.23,1.73v1.6h-.72v-4h.69a4.78,4.78,0,0,1-.09.94h0a1.26,1.26,0,0,1,1.37-1Z"/><path class="f" d="M64.92,43.61a4.4,4.4,0,0,1,.07-.8h0a1.41,1.41,0,0,1-1.33.89c-1,0-1.47-.72-1.47-1.88a2,2,0,0,1,2.06-2.23c.21,0,.43,0,.67,0V37.78h.72v5.83Zm0-3.37a2.92,2.92,0,0,0-.7-.09c-.76,0-1.27.46-1.27,1.6,0,.86.28,1.34.88,1.34s1.09-.84,1.09-1.53Z"/><path class="f" d="M71.32,43.61h-.8l-.8-2.34c-.08-.25-.15-.51-.22-.79h0c-.08.35-.17.66-.28,1l-.66,2.13h-.8l-1.22-4h.79l.61,2.12c.1.37.2.73.28,1h0c.08-.35.18-.7.27-1l.68-2.13h.77l.69,2.11c.15.5.23.75.3,1.06h0c.08-.34.16-.63.27-1l.64-2.14h.76Z"/><path class="f" d="M73.88,38.85a.47.47,0,0,1-.48-.47.47.47,0,0,1,.48-.47.47.47,0,1,1,0,.94Zm-.36,4.76v-4h.72v4Z"/><path class="f" d="M76.33,43.69a3.48,3.48,0,0,1-.88-.11l.07-.64a2.3,2.3,0,0,0,.88.16c.51,0,.86-.23.86-.61,0-.89-1.85-.33-1.85-1.73,0-.68.53-1.19,1.59-1.19a3.92,3.92,0,0,1,.76.08l-.05.59a2.77,2.77,0,0,0-.78-.12c-.53,0-.77.22-.77.57,0,.88,1.85.37,1.85,1.72C78,43.14,77.37,43.69,76.33,43.69Z"/><path class="f" d="M79.83,43.69a3.48,3.48,0,0,1-.88-.11l.06-.64a2.37,2.37,0,0,0,.88.16c.51,0,.87-.23.87-.61,0-.89-1.85-.33-1.85-1.73,0-.68.53-1.19,1.58-1.19a4,4,0,0,1,.77.08l-.06.59a2.76,2.76,0,0,0-.77-.12c-.53,0-.78.22-.78.57,0,.88,1.86.37,1.86,1.72C81.51,43.14,80.87,43.69,79.83,43.69Z"/><path class="f" d="M85.68,41.61h-2.6c0,1,.39,1.49,1.25,1.49a2.94,2.94,0,0,0,1.14-.23l.1.57a3.75,3.75,0,0,1-1.37.25c-1.21,0-1.87-.64-1.87-2a1.85,1.85,0,0,1,1.79-2.08A1.47,1.47,0,0,1,85.7,41.2C85.7,41.29,85.69,41.45,85.68,41.61Zm-1.6-1.5a1,1,0,0,0-1,1H85A.86.86,0,0,0,84.08,40.11Z"/><path class="f" d="M89.37,43.61V41.05c0-.55-.15-.89-.68-.89s-1.13.67-1.13,1.55v1.9h-.71v-4h.69a5.93,5.93,0,0,1-.06.84h0a1.46,1.46,0,0,1,1.4-.91c.91,0,1.2.57,1.2,1.27v2.77Z"/><path class="f" d="M92.18,43.69a3.48,3.48,0,0,1-.88-.11l.07-.64a2.28,2.28,0,0,0,.87.16c.52,0,.87-.23.87-.61,0-.89-1.85-.33-1.85-1.73,0-.68.53-1.19,1.58-1.19a4,4,0,0,1,.77.08l0,.59a2.89,2.89,0,0,0-.78-.12c-.53,0-.78.22-.78.57,0,.88,1.86.37,1.86,1.72C93.86,43.14,93.22,43.69,92.18,43.69Z"/><path class="f" d="M96.43,43.68c-1,0-1.74-.46-1.74-1.92,0-1.28.65-2.18,1.93-2.18a3,3,0,0,1,1,.16l-.14.62a2.33,2.33,0,0,0-.9-.18c-.72,0-1.12.61-1.12,1.48s.25,1.39,1.13,1.39a2.15,2.15,0,0,0,.93-.19l.11.6A3.18,3.18,0,0,1,96.43,43.68Z"/><path class="f" d="M101.14,43.61V41.05c0-.55-.15-.89-.68-.89s-1.13.67-1.13,1.55v1.9h-.72V37.78h.72v1.88a3.41,3.41,0,0,1-.07.8h0a1.44,1.44,0,0,1,1.38-.89c.91,0,1.2.57,1.2,1.27v2.77Z"/><path class="f" d="M105.43,43.61a4.91,4.91,0,0,1,0-.79h0a1.41,1.41,0,0,1-1.35.87,1,1,0,0,1-1.1-1.08c0-.85.87-1.36,2.39-1.36v-.19c0-.63-.22-.93-.84-.93a2.94,2.94,0,0,0-1.2.29l-.14-.57a3.91,3.91,0,0,1,1.43-.29c1.12,0,1.47.54,1.47,1.39v1.52c0,.38,0,.8,0,1.14Zm0-1.86c-1.31,0-1.68.36-1.68.76a.59.59,0,0,0,.61.61,1.19,1.19,0,0,0,1.07-1.27Z"/><path class="f" d="M109.88,38.4a1.9,1.9,0,0,0-.58-.09c-.57,0-.82.32-.82,1v.3h1.11v.56h-1.11v3.41h-.72V40.2H107v-.56h.81v-.3c0-1.09.54-1.61,1.53-1.61a2.9,2.9,0,0,1,.66.07Z"/><path class="f" d="M111.52,43.68c-.81,0-1.06-.34-1.06-1.19V40.2h-.82v-.56h.82V38.35l.72-.2v1.49h1.11v.56h-1.11v2c0,.66.13.83.57.83a1.9,1.9,0,0,0,.5-.06l.07.59A3.44,3.44,0,0,1,111.52,43.68Z"/><path class="f" d="M113.36,43.61V37.78h.72v5.83Z"/><path class="f" d="M115.9,38.85a.47.47,0,0,1-.48-.47.48.48,0,1,1,.48.47Zm-.36,4.76v-4h.72v4Z"/><path class="f" d="M119.11,43.68c-1,0-1.75-.46-1.75-1.92,0-1.28.66-2.18,1.94-2.18a3,3,0,0,1,1,.16l-.14.62a2.33,2.33,0,0,0-.9-.18c-.72,0-1.12.61-1.12,1.48s.25,1.39,1.13,1.39a2.15,2.15,0,0,0,.93-.19l.11.6A3.18,3.18,0,0,1,119.11,43.68Z"/><path class="f" d="M123.82,43.61V41.05c0-.55-.15-.89-.68-.89s-1.13.67-1.13,1.55v1.9h-.72V37.78H122v1.88a3.41,3.41,0,0,1-.07.8h0a1.44,1.44,0,0,1,1.38-.89c.91,0,1.2.57,1.2,1.27v2.77Z"/><path class="f" d="M129,41.61h-2.6c0,1,.39,1.49,1.26,1.49a2.93,2.93,0,0,0,1.13-.23l.1.57a3.68,3.68,0,0,1-1.37.25c-1.21,0-1.86-.64-1.86-2a1.84,1.84,0,0,1,1.79-2.08A1.47,1.47,0,0,1,129,41.2,3.34,3.34,0,0,1,129,41.61Zm-1.6-1.5a1,1,0,0,0-1,1h1.87A.87.87,0,0,0,127.38,40.11Z"/><path class="f" d="M130.79,43.69a3.42,3.42,0,0,1-.88-.11l.06-.64a2.37,2.37,0,0,0,.88.16c.51,0,.87-.23.87-.61,0-.89-1.85-.33-1.85-1.73,0-.68.53-1.19,1.58-1.19a4,4,0,0,1,.77.08l-.06.59a2.76,2.76,0,0,0-.77-.12c-.53,0-.78.22-.78.57,0,.88,1.86.37,1.86,1.72C132.47,43.14,131.83,43.69,130.79,43.69Z"/><path class="f" d="M136.22,38.82v1.76h1.91v.59h-1.91v2.44h-.74V38.22h2.76v.6Z"/><path class="f" d="M140.57,43.69c-1.08,0-1.78-.63-1.78-2a1.93,1.93,0,0,1,1.93-2.09c1,0,1.79.56,1.79,2A2,2,0,0,1,140.57,43.69Zm.09-3.52c-.57,0-1.12.44-1.12,1.42s.39,1.49,1.12,1.49,1.1-.47,1.1-1.48S141.4,40.17,140.66,40.17Z"/><path class="f" d="M145.57,40.28c-.84-.15-1.24.46-1.24,1.73v1.6h-.72v-4h.7a5.69,5.69,0,0,1-.09.94h0a1.25,1.25,0,0,1,1.36-1Z"/><path class="f" d="M147.19,43.69a3.42,3.42,0,0,1-.88-.11l.06-.64a2.37,2.37,0,0,0,.88.16c.51,0,.87-.23.87-.61,0-.89-1.85-.33-1.85-1.73,0-.68.53-1.19,1.58-1.19a4,4,0,0,1,.77.08l-.06.59a2.76,2.76,0,0,0-.77-.12c-.53,0-.78.22-.78.57,0,.88,1.86.37,1.86,1.72C148.87,43.14,148.23,43.69,147.19,43.69Z"/><path class="f" d="M151.44,43.68c-1,0-1.75-.46-1.75-1.92,0-1.28.66-2.18,1.94-2.18a2.86,2.86,0,0,1,1,.16l-.13.62a2.34,2.34,0,0,0-.91-.18c-.72,0-1.11.61-1.11,1.48s.25,1.39,1.13,1.39a2.18,2.18,0,0,0,.93-.19l.11.6A3.26,3.26,0,0,1,151.44,43.68Z"/><path class="f" d="M156.15,43.61V41.05c0-.55-.15-.89-.68-.89s-1.13.67-1.13,1.55v1.9h-.72V37.78h.72v1.88a4,4,0,0,1-.07.8h0a1.45,1.45,0,0,1,1.39-.89c.91,0,1.2.57,1.2,1.27v2.77Z"/><path class="f" d="M160.86,43.61a4.75,4.75,0,0,1,.06-.84h0a1.46,1.46,0,0,1-1.4.92c-.91,0-1.19-.57-1.19-1.28V39.64H159V42.2c0,.56.16.89.68.89s1.12-.67,1.12-1.55v-1.9h.72v4Z"/><path class="f" d="M165.54,43.61V41.05c0-.55-.15-.89-.68-.89s-1.13.67-1.13,1.55v1.9H163v-4h.7a4.76,4.76,0,0,1-.07.84h0a1.46,1.46,0,0,1,1.4-.91c.91,0,1.2.57,1.2,1.27v2.77Z"/><path class="f" d="M169,45.66c-1,0-1.67-.42-1.67-1.19a1.24,1.24,0,0,1,.66-1.06.62.62,0,0,1-.39-.59.77.77,0,0,1,.44-.67,1.21,1.21,0,0,1-.58-1.1,1.51,1.51,0,0,1,1.68-1.48,2,2,0,0,1,.56.07h1.35v.57h-.65a.91.91,0,0,1,.32.73c0,.82-.55,1.44-1.68,1.44a1.42,1.42,0,0,1-.42-.05.38.38,0,0,0-.26.33c0,.23.2.3.68.31l.73,0c.85,0,1.33.43,1.33,1.15S170.27,45.66,169,45.66Zm.56-2.06-.77,0h-.23a1,1,0,0,0-.51.78c0,.47.45.75,1.07.75.81,0,1.25-.37,1.25-.85S170.14,43.61,169.58,43.6Zm-.45-3.5a.86.86,0,0,0-.94.89.81.81,0,0,0,.92.87.88.88,0,1,0,0-1.76Z"/><path class="f" d="M172.77,43.69a3.48,3.48,0,0,1-.88-.11l.07-.64a2.3,2.3,0,0,0,.88.16c.51,0,.86-.23.86-.61,0-.89-1.85-.33-1.85-1.73,0-.68.53-1.19,1.59-1.19a4,4,0,0,1,.76.08l0,.59a2.83,2.83,0,0,0-.78-.12c-.53,0-.77.22-.77.57,0,.88,1.85.37,1.85,1.72C174.45,43.14,173.81,43.69,172.77,43.69Z"/><path class="f" d="M175.32,41.61V41h1.89v.59Z"/><path class="f" d="M182.75,43.61a4.75,4.75,0,0,1,.06-.84h0a1.44,1.44,0,0,1-1.39.92c-.92,0-1.2-.57-1.2-1.28V39.64h.71V42.2c0,.56.17.89.68.89.66,0,1.13-.67,1.13-1.55v-1.9h.72v4Z"/><path class="f" d="M187.43,43.61V41.05c0-.55-.16-.89-.68-.89s-1.13.67-1.13,1.55v1.9h-.72v-4h.7a4.76,4.76,0,0,1-.07.84h0a1.46,1.46,0,0,1,1.4-.91c.91,0,1.2.57,1.2,1.27v2.77Z"/><path class="f" d="M192,43.61a4.4,4.4,0,0,1,.07-.8h0a1.41,1.41,0,0,1-1.33.89c-1,0-1.47-.72-1.47-1.88a2,2,0,0,1,2.06-2.23c.21,0,.43,0,.67,0V37.78h.72v5.83Zm0-3.37a2.92,2.92,0,0,0-.7-.09c-.76,0-1.27.46-1.27,1.6,0,.86.28,1.34.88,1.34s1.09-.84,1.09-1.53Z"/><path class="f" d="M64.24,54.11V48.72H65v5.39Z"/><path class="f" d="M69,54.11V51.55c0-.55-.16-.89-.68-.89s-1.13.67-1.13,1.55v1.9h-.72v-4h.69a4.75,4.75,0,0,1-.06.84h0a1.46,1.46,0,0,1,1.4-.91c.91,0,1.2.57,1.2,1.27v2.77Z"/><path class="f" d="M73.44,48.9a2,2,0,0,0-.59-.09c-.57,0-.81.32-.81,1v.3h1.1v.56H72v3.41h-.72V50.7H70.5v-.56h.82v-.3c0-1.09.53-1.61,1.52-1.61a2.9,2.9,0,0,1,.66.07Z"/><path class="f" d="M75.29,54.19c-1.08,0-1.78-.63-1.78-2a1.94,1.94,0,0,1,1.93-2.09c1,0,1.8.56,1.8,2A2,2,0,0,1,75.29,54.19Zm.09-3.52c-.57,0-1.12.44-1.12,1.42s.39,1.49,1.12,1.49,1.1-.47,1.1-1.48S76.12,50.67,75.38,50.67Z"/><path class="f" d="M80.29,50.78c-.84-.15-1.24.46-1.24,1.73v1.6h-.72v-4H79a5.69,5.69,0,0,1-.09.94h0a1.25,1.25,0,0,1,1.36-1Z"/><path class="f" d="M86.22,54.11V51.56c0-.54-.13-.9-.65-.9s-1.11.6-1.11,1.57v1.88h-.71V51.56c0-.5-.11-.9-.65-.9S82,51.31,82,52.23v1.88h-.72v-4H82a5.92,5.92,0,0,1,0,.84h0a1.45,1.45,0,0,1,1.38-.92,1,1,0,0,1,1.1.9,1.47,1.47,0,0,1,1.35-.9c.76,0,1.19.4,1.19,1.3v2.74Z"/><path class="f" d="M90.52,54.11a4.91,4.91,0,0,1,0-.79h0a1.42,1.42,0,0,1-1.35.87,1,1,0,0,1-1.11-1.08c0-.85.88-1.36,2.4-1.36v-.19c0-.63-.22-.93-.84-.93a2.94,2.94,0,0,0-1.2.29l-.14-.57a3.87,3.87,0,0,1,1.43-.29c1.11,0,1.47.54,1.47,1.39V53c0,.38,0,.8,0,1.14Zm0-1.86c-1.31,0-1.68.36-1.68.76a.59.59,0,0,0,.6.61,1.2,1.2,0,0,0,1.08-1.27Z"/><path class="f" d="M93.79,54.18c-.82,0-1.06-.34-1.06-1.19V50.7h-.82v-.56h.82V48.85l.71-.2v1.49h1.12v.56H93.44v2c0,.66.13.83.57.83a2,2,0,0,0,.51-.06l.07.59A3.5,3.5,0,0,1,93.79,54.18Z"/><path class="f" d="M96,49.35a.47.47,0,0,1-.48-.47.47.47,0,0,1,.48-.47.47.47,0,1,1,0,.94Zm-.36,4.76v-4h.72v4Z"/><path class="f" d="M99.22,54.19c-1.08,0-1.78-.63-1.78-2a1.93,1.93,0,0,1,1.93-2.09c1,0,1.79.56,1.79,2A2,2,0,0,1,99.22,54.19Zm.09-3.52c-.57,0-1.12.44-1.12,1.42s.39,1.49,1.12,1.49,1.1-.47,1.1-1.48S100,50.67,99.31,50.67Z"/><path class="f" d="M104.79,54.11V51.55c0-.55-.15-.89-.68-.89s-1.13.67-1.13,1.55v1.9h-.72v-4h.7a4.76,4.76,0,0,1-.07.84h0a1.46,1.46,0,0,1,1.4-.91c.91,0,1.2.57,1.2,1.27v2.77Z"/><path class="f" d="M107.6,54.19a3.36,3.36,0,0,1-.88-.11l.06-.64a2.33,2.33,0,0,0,.88.16c.51,0,.86-.23.86-.61,0-.89-1.84-.33-1.84-1.73,0-.68.53-1.19,1.58-1.19a4,4,0,0,1,.77.08l-.06.59a2.76,2.76,0,0,0-.77-.12c-.53,0-.78.22-.78.57,0,.88,1.86.37,1.86,1.72C109.28,53.64,108.64,54.19,107.6,54.19Z"/><path class="f" d="M110.16,54.11V53.6l1.9-2.84-1,0h-.81v-.64h2.7v.5L111,53.47l1.08,0h.84v.66Z"/><path class="f" d="M117,52.11h-2.6c0,1,.39,1.49,1.25,1.49a2.94,2.94,0,0,0,1.14-.23l.1.57a3.75,3.75,0,0,1-1.37.25c-1.21,0-1.87-.64-1.87-2a1.85,1.85,0,0,1,1.79-2.08,1.47,1.47,0,0,1,1.58,1.63C117.06,51.79,117.05,52,117,52.11Zm-1.6-1.5a1,1,0,0,0-1,1h1.86A.86.86,0,0,0,115.44,50.61Z"/><path class="f" d="M120.73,54.11V51.55c0-.55-.15-.89-.68-.89s-1.13.67-1.13,1.55v1.9h-.71v-4h.69a5.93,5.93,0,0,1-.06.84h0a1.46,1.46,0,0,1,1.4-.91c.91,0,1.2.57,1.2,1.27v2.77Z"/><path class="f" d="M124,54.18c-.81,0-1.06-.34-1.06-1.19V50.7h-.82v-.56H123V48.85l.72-.2v1.49h1.11v.56H123.7v2c0,.66.13.83.57.83a1.9,1.9,0,0,0,.5-.06l.07.59A3.44,3.44,0,0,1,124,54.18Z"/><path class="f" d="M127.84,50.78c-.84-.15-1.24.46-1.24,1.73v1.6h-.72v-4h.7a4.78,4.78,0,0,1-.09.94h0a1.26,1.26,0,0,1,1.37-1Z"/><path class="f" d="M131.36,54.11a4.76,4.76,0,0,1,.07-.84h0a1.45,1.45,0,0,1-1.4.92c-.91,0-1.19-.57-1.19-1.28V50.14h.71V52.7c0,.56.16.89.68.89s1.13-.67,1.13-1.55v-1.9h.72v4Z"/><path class="f" d="M138.47,54.11V51.56c0-.54-.13-.9-.65-.9s-1.11.6-1.11,1.57v1.88H136V51.56c0-.5-.11-.9-.65-.9s-1.11.65-1.11,1.57v1.88h-.72v-4h.69a5.92,5.92,0,0,1-.05.84h0a1.48,1.48,0,0,1,1.39-.92,1,1,0,0,1,1.09.9,1.48,1.48,0,0,1,1.36-.9c.75,0,1.19.4,1.19,1.3v2.74Z"/><path class="f" d="M144.88,54.11a4.4,4.4,0,0,1,.07-.8h0a1.41,1.41,0,0,1-1.33.89c-1,0-1.47-.72-1.47-1.88a2,2,0,0,1,2.06-2.23c.21,0,.43,0,.67,0V48.28h.72v5.83Zm0-3.37a2.92,2.92,0,0,0-.7-.09c-.76,0-1.27.46-1.27,1.6,0,.86.28,1.34.88,1.34s1.09-.84,1.09-1.53Z"/><path class="f" d="M150,52.11h-2.6c0,1,.39,1.49,1.25,1.49a2.94,2.94,0,0,0,1.14-.23l.1.57a3.75,3.75,0,0,1-1.37.25c-1.21,0-1.87-.64-1.87-2a1.85,1.85,0,0,1,1.8-2.08,1.47,1.47,0,0,1,1.57,1.63C150.05,51.79,150,52,150,52.11Zm-1.6-1.5a1,1,0,0,0-1,1h1.87A.87.87,0,0,0,148.43,50.61Z"/><path class="f" d="M153.16,50.78c-.84-.15-1.24.46-1.24,1.73v1.6h-.72v-4h.69a4.78,4.78,0,0,1-.09.94h0a1.27,1.27,0,0,1,1.37-1Z"/><path class="f" d="M156,54.11V48.72h2.78v.6h-2V51h1.94v.59h-1.94V53.5h2v.61Z"/><path class="f" d="M161.83,49.33v4.78h-.74V49.33h-1.55v-.61h3.85v.61Z"/><path class="f" d="M167.79,54.11V51.63H165v2.48h-.74V48.72H165V51h2.75V48.72h.73v5.39Z"/><path class="f" d="M171.51,54.11v-.54L173.77,50c.15-.23.28-.43.44-.64h-2.62v-.65h3.48v.56L172.68,53c-.1.16-.2.31-.32.47.17,0,.65,0,1.35,0h1.39v.67Z"/><path class="f" d="M178.61,54.11a5.93,5.93,0,0,1,.06-.84h0a1.45,1.45,0,0,1-1.4.92c-.91,0-1.19-.57-1.19-1.28V50.14h.71V52.7c0,.56.16.89.68.89s1.13-.67,1.13-1.55v-1.9h.72v4Zm-1.7-4.79a.44.44,0,0,1-.43-.44.43.43,0,0,1,.43-.43.42.42,0,0,1,.43.43A.43.43,0,0,1,176.91,49.32Zm1.54,0a.44.44,0,0,1-.43-.44.43.43,0,0,1,.43-.43.42.42,0,0,1,.42.43A.43.43,0,0,1,178.45,49.32Z"/><path class="f" d="M182.72,50.78c-.84-.15-1.24.46-1.24,1.73v1.6h-.72v-4h.7a4.78,4.78,0,0,1-.09.94h0a1.25,1.25,0,0,1,1.36-1Z"/><path class="f" d="M184.06,49.35a.47.47,0,0,1-.48-.47.48.48,0,1,1,.48.47Zm-.36,4.76v-4h.72v4Z"/><path class="f" d="M187.27,54.18c-1,0-1.75-.46-1.75-1.92,0-1.28.66-2.18,1.94-2.18a2.86,2.86,0,0,1,1,.16l-.13.62a2.33,2.33,0,0,0-.9-.18c-.73,0-1.12.61-1.12,1.48s.25,1.39,1.13,1.39a2.15,2.15,0,0,0,.93-.19l.11.6A3.26,3.26,0,0,1,187.27,54.18Z"/><path class="f" d="M192,54.11V51.55c0-.55-.15-.89-.68-.89s-1.13.67-1.13,1.55v1.9h-.72V48.28h.72v1.88a3.41,3.41,0,0,1-.07.8h0a1.43,1.43,0,0,1,1.38-.89c.91,0,1.2.57,1.2,1.27v2.77Z"/></svg>