<svg xmlns="http://www.w3.org/2000/svg" xmlns:xlink="http://www.w3.org/1999/xlink" viewBox="0 0 100.17 89.69"><defs><style>.a,.d,.g{fill:none;}.b{fill:#b41e1e;}.c{clip-path:url(#a);}.d,.g{stroke:#fff;}.e{fill:#fff;}.f{fill:#b51f1f;}.g{stroke-miterlimit:10;}</style><clipPath id="a" transform="translate(0 0)"><rect class="a" width="100.17" height="89.69"/></clipPath></defs><polygon class="b" points="35.81 72.93 90.77 84.59 99.65 57.38 92.44 29.07 62.59 15.19 38.58 38.76 30.81 60.71 35.81 72.93"/><g class="c"><polygon class="d" points="35.81 72.93 90.77 84.59 99.65 57.38 92.44 29.07 62.59 15.19 38.58 38.76 30.81 60.71 35.81 72.93"/></g><polygon class="b" points="24.4 66.06 14.29 75.46 24.4 89.19 44.63 89.19 48.24 80.52 39.57 60.28 24.4 66.06"/><g class="c"><polygon class="d" points="14.29 75.46 24.4 66.06 39.57 60.28 48.24 80.52 44.63 89.19 24.4 89.19 14.29 75.46"/></g><polygon class="e" points="68.73 29.29 78.39 26.35 90.8 40.31 91.49 51.33 84.6 41.05 68.73 29.29"/><path class="d" d="M68.73,29.29l9.66-2.94,12.41,14,.69,11L84.6,41.05,68.73,29.29l9.66-2.94,12.41,14,.69,11L84.6,41.05,68.73,29.29m0,0,9.66-2.94,12.41,14,.69,11L84.6,41.05,68.73,29.29" transform="translate(0 0)"/><path class="f" d="M20.57,28.11a7.62,7.62,0,1,1,7.62-7.61,7.62,7.62,0,0,1-7.62,7.61M20.51.5C10,.5,1.14,9.26.51,20.42c-.6,10.72,20,43.88,20,43.88S39.87,33.7,39.93,20.86C40,9.26,31,.5,20.51.5" transform="translate(0 0)"/><path class="g" d="M20.57,28.11a7.62,7.62,0,1,1,7.62-7.61A7.62,7.62,0,0,1,20.57,28.11ZM20.51.5C10,.5,1.14,9.26.51,20.42c-.6,10.72,20,43.88,20,43.88S39.87,33.7,39.93,20.86C40,9.26,31,.5,20.51.5Z" transform="translate(0 0)"/><path class="e" d="M21,28.41a7.82,7.82,0,1,0-7.82-7.82A7.82,7.82,0,0,0,21,28.41" transform="translate(0 0)"/><path class="d" d="M21,28.41a7.82,7.82,0,1,0-7.82-7.82A7.82,7.82,0,0,0,21,28.41a7.82,7.82,0,1,0-7.82-7.82A7.82,7.82,0,0,0,21,28.41m0,0a7.82,7.82,0,1,0-7.82-7.82A7.82,7.82,0,0,0,21,28.41" transform="translate(0 0)"/></svg>