<svg xmlns="http://www.w3.org/2000/svg" viewBox="0 0 107.56 83.59"><defs><style>.a{fill:#b41e1e;}.a,.c,.d,.e{stroke:#fff;}.b{fill:#fff;}.c{fill:#b51f1f;}.c,.d{stroke-miterlimit:10;}.d,.e{fill:none;}</style></defs><polygon class="a" points="25.34 39.65 31.86 74.84 86.34 83.05 107.02 62.24 98.07 16.19 59.18 0.6 25.34 39.65"/><polygon class="b" points="58.77 16.33 63.46 7.73 94.74 27.28 96.3 52.3 79.1 26.5 58.77 16.33"/><path class="c" d="M20.57,45.38a7.62,7.62,0,1,1,7.62-7.61,7.62,7.62,0,0,1-7.62,7.61m-.06-27.61C10,17.77,1.14,26.53.51,37.7c-.6,10.71,20,43.87,20,43.87S39.87,51,39.93,38.13C40,26.53,31,17.77,20.51,17.77" transform="translate(0)"/><path class="d" d="M20.57,45.38a7.62,7.62,0,1,1,7.62-7.61A7.62,7.62,0,0,1,20.57,45.38Z" transform="translate(0)"/><path class="b" d="M21,45.68a7.82,7.82,0,1,0-7.82-7.82A7.82,7.82,0,0,0,21,45.68" transform="translate(0)"/><path class="e" d="M21,45.68a7.82,7.82,0,1,0-7.82-7.82A7.82,7.82,0,0,0,21,45.68a7.82,7.82,0,1,0-7.82-7.82A7.82,7.82,0,0,0,21,45.68m0,0a7.82,7.82,0,1,0-7.82-7.82A7.82,7.82,0,0,0,21,45.68" transform="translate(0)"/></svg>